HIERARCHY
ROOT joint_Root
{
	OFFSET 0.0 0.0 0.0
	CHANNELS 6 Xposition Yposition Zposition Zrotation Xrotation Yrotation 
	JOINT Hips
	{
		OFFSET 4.5925 91.4895 -427.239
		CHANNELS 6 Xposition Yposition Zposition Zrotation Xrotation Yrotation 
		JOINT Spine
		{
			OFFSET 15.7357 0.0 0.0
			CHANNELS 6 Xposition Yposition Zposition Zrotation Xrotation Yrotation 
			JOINT Chest
			{
				OFFSET 8.98455 -0.406207 0.0
				CHANNELS 6 Xposition Yposition Zposition Zrotation Xrotation Yrotation 
				JOINT Neck
				{
					OFFSET 16.3773 0.0 0.0
					CHANNELS 6 Xposition Yposition Zposition Zrotation Xrotation Yrotation 
					JOINT Head
					{
						OFFSET 6.45672 0.0 0.0
						CHANNELS 6 Xposition Yposition Zposition Zrotation Xrotation Yrotation 
						End Site
						{
							OFFSET 0.0 0.0 0.0
						}
					}
				}
				JOINT Shoulder_L
				{
					OFFSET 12.9942 -0.242716 4.98039
					CHANNELS 6 Xposition Yposition Zposition Zrotation Xrotation Yrotation 
					JOINT UpperArm_L
					{
						OFFSET 5.34809 0.0 0.0
						CHANNELS 6 Xposition Yposition Zposition Zrotation Xrotation Yrotation 
						JOINT LowerArm_L
						{
							OFFSET 24.3286 1.87007e-05 0.0
							CHANNELS 6 Xposition Yposition Zposition Zrotation Xrotation Yrotation 
							JOINT Hand_L
							{
								OFFSET 22.2916 0.0 0.0
								CHANNELS 6 Xposition Yposition Zposition Zrotation Xrotation Yrotation 
								End Site
								{
									OFFSET 0.0 0.0 0.0
								}
							}
						}
					}
				}
				JOINT Shoulder_R
				{
					OFFSET 12.9945 -0.242716 -4.98039
					CHANNELS 6 Xposition Yposition Zposition Zrotation Xrotation Yrotation 
					JOINT UpperArm_R
					{
						OFFSET -5.34813 0.0 0.0
						CHANNELS 6 Xposition Yposition Zposition Zrotation Xrotation Yrotation 
						JOINT LowerArm_R
						{
							OFFSET -24.3289 0.000322201 0.0
							CHANNELS 6 Xposition Yposition Zposition Zrotation Xrotation Yrotation 
							JOINT Hand_R
							{
								OFFSET -22.2915 -0.000108084 0.0
								CHANNELS 6 Xposition Yposition Zposition Zrotation Xrotation Yrotation 
								End Site
								{
									OFFSET 0.0 0.0 0.0
								}
							}
						}
					}
				}
			}
		}
		JOINT UpperLeg_L
		{
			OFFSET -2.19248 -6.46944 0.0
			CHANNELS 6 Xposition Yposition Zposition Zrotation Xrotation Yrotation 
			JOINT LowerLeg_L
			{
				OFFSET 39.0811 0.0 -1.23785e-05
				CHANNELS 6 Xposition Yposition Zposition Zrotation Xrotation Yrotation 
				JOINT Foot_L
				{
					OFFSET 40.9854 0.0 -1.26872e-05
					CHANNELS 6 Xposition Yposition Zposition Zrotation Xrotation Yrotation 
					JOINT Toes_L
					{
						OFFSET 11.7543 0.0 0.0
						CHANNELS 6 Xposition Yposition Zposition Zrotation Xrotation Yrotation 
						End Site
						{
							OFFSET 0.0 0.0 0.0
						}
					}
				}
			}
		}
		JOINT UpperLeg_R
		{
			OFFSET -2.19251 6.46944 0.0
			CHANNELS 6 Xposition Yposition Zposition Zrotation Xrotation Yrotation 
			JOINT LowerLeg_R
			{
				OFFSET -39.0811 -0.00228153 -0.0401928
				CHANNELS 6 Xposition Yposition Zposition Zrotation Xrotation Yrotation 
				JOINT Foot_R
				{
					OFFSET -40.9854 0.0 0.0
					CHANNELS 6 Xposition Yposition Zposition Zrotation Xrotation Yrotation 
					JOINT Toes_R
					{
						OFFSET -11.7543 0.0 0.0
						CHANNELS 6 Xposition Yposition Zposition Zrotation Xrotation Yrotation 
						End Site
						{
							OFFSET 0.0 0.0 0.0
						}
					}
				}
			}
		}
	}
}
MOTION
Frames:	7
Frame Time:	0.0333333
0.000000 0.000000 0.000000 0.000000 0.000000 -0.000000 3.750910 91.455200 0.591615 89.890900 -8.272860 3.171930 15.735700 0.000005 -0.000001 77.269200 85.725500 -74.045600 8.984550 -0.406207 -0.000000 0.640244 -2.083560 6.454720 16.377300 -0.000001 -0.000001 4.825620 0.662248 -2.715710 6.456720 -0.000001 -0.000000 -2.486210 -0.317497 2.128840 12.994200 -0.242716 4.980390 -83.859800 -11.640600 -61.934800 5.348090 -0.000007 -0.000001 -56.139800 -68.443900 -101.071000 24.328600 0.000019 0.000005 5.634630 5.674210 -44.941800 22.291600 -0.000001 0.000005 17.463200 5.302230 0.009786 12.994500 -0.242716 -4.980390 87.516000 9.860900 -75.785500 -5.348130 -0.000001 -0.000004 -57.725900 17.976000 -7.053860 -24.328900 0.000322 -0.000009 -0.743461 -1.634740 -24.428800 -22.291500 -0.000108 -0.000004 16.352700 5.423580 -3.719940 -2.192480 -6.469440 -0.000000 -178.687000 -17.844500 -3.498790 39.081100 -0.000007 -0.000012 -0.127838 0.261488 26.053600 40.985400 -0.000006 -0.000013 2.307090 4.306320 -69.681800 11.754300 -0.000000 0.000003 -0.000161 -0.001539 -16.636000 -2.192510 6.469440 -0.000001 172.694000 19.525000 175.895000 -39.081100 -0.002282 -0.040193 -0.148119 0.317068 25.529100 -40.985400 0.000008 0.000006 1.244550 20.082300 -67.792500 -11.754300 -0.000006 -0.000006 -0.001213 -0.018386 -17.320800
0.000000 0.000000 0.000000 0.000000 0.000000 -0.000000 3.643760 91.451900 0.718130 89.893100 -7.964010 3.102950 15.735700 0.000005 -0.000001 75.891400 85.771000 -72.800400 8.984550 -0.406207 -0.000000 0.506022 -2.256750 6.188030 16.377300 -0.000001 -0.000001 4.885120 0.528357 -2.769860 6.456720 -0.000001 -0.000000 -2.083330 -0.340282 2.236700 12.994200 -0.242716 4.980390 -84.169300 -11.110900 -62.080700 5.348090 -0.000007 -0.000001 -56.162900 -67.728900 -99.631200 24.328600 0.000019 0.000005 4.524330 3.998840 -48.618400 22.291600 -0.000001 0.000005 17.262900 5.296230 0.177721 12.994500 -0.242716 -4.980390 87.475200 9.865970 -75.568500 -5.348130 -0.000001 -0.000004 -57.812600 18.609900 -7.486890 -24.328900 0.000322 -0.000009 -0.826807 -1.822860 -24.375300 -22.291500 -0.000108 -0.000004 16.310900 5.422080 -3.669220 -2.192480 -6.469440 -0.000000 -178.542000 -18.016000 -3.434590 39.081100 -0.000007 -0.000012 -0.131959 0.270455 26.008500 40.985400 -0.000006 -0.000013 2.340060 4.833540 -69.745100 11.754300 -0.000000 0.000003 -0.000160 -0.001532 -16.635700 -2.192510 6.469440 -0.000001 172.725000 19.673100 176.016000 -39.081100 -0.002282 -0.040193 -0.154014 0.330367 25.464500 -40.985400 0.000008 0.000006 1.137540 19.927200 -67.854100 -11.754300 -0.000006 -0.000006 -0.000948 -0.014668 -17.169700
0.000000 0.000000 0.000000 0.000000 0.000000 -0.000000 3.508840 91.438300 0.853809 89.893800 -7.591640 3.130250 15.735700 0.000005 -0.000001 74.970700 85.776100 -72.009700 8.984550 -0.406207 -0.000000 0.461948 -2.378520 5.928000 16.377300 -0.000001 -0.000001 4.942850 0.281883 -2.692480 6.456720 -0.000001 -0.000000 -1.851470 -0.431453 2.146540 12.994200 -0.242716 4.980390 -84.623500 -10.413200 -62.494100 5.348090 -0.000007 -0.000001 -54.380200 -67.007400 -95.518800 24.328600 0.000019 0.000005 3.264670 2.346280 -54.350600 22.291600 -0.000001 0.000005 16.753200 5.292930 0.269644 12.994500 -0.242716 -4.980390 87.445300 9.828930 -75.352600 -5.348130 -0.000001 -0.000004 -58.068200 19.058500 -7.766130 -24.328900 0.000322 -0.000009 -0.874438 -1.922400 -24.438400 -22.291500 -0.000108 -0.000004 16.283500 5.422880 -3.696330 -2.192480 -6.469440 -0.000000 -178.393000 -17.999800 -3.341070 39.081100 -0.000007 -0.000012 -0.132039 0.270173 26.045800 40.985400 -0.000006 -0.000013 2.328630 5.186260 -69.821700 11.754300 -0.000000 0.000003 -0.000175 -0.001657 -16.640300 -2.192510 6.469440 -0.000001 172.745000 19.790300 176.223000 -39.081100 -0.002282 -0.040193 -0.157985 0.338330 25.489300 -40.985400 0.000008 0.000006 1.202230 19.652600 -68.047800 -11.754300 -0.000006 -0.000006 -0.000989 -0.015254 -17.193500
0.000000 0.000000 0.000000 0.000000 0.000000 -0.000000 3.370220 91.411900 0.960785 89.907700 -7.232060 3.219950 15.735700 0.000005 -0.000001 74.951800 85.769200 -72.138400 8.984550 -0.406207 -0.000000 0.470696 -2.375170 5.633300 16.377300 -0.000001 -0.000001 4.915770 0.006391 -2.505850 6.456720 -0.000001 -0.000000 -1.652340 -0.671136 2.153200 12.994200 -0.242716 4.980390 -85.171900 -9.559360 -63.041300 5.348090 -0.000007 -0.000001 -51.200800 -65.844000 -89.285800 24.328600 0.000019 0.000005 2.611640 1.395720 -61.903700 22.291600 -0.000001 0.000005 16.389800 5.286720 0.441671 12.994500 -0.242716 -4.980390 87.410900 9.844160 -75.185300 -5.348130 -0.000001 -0.000004 -58.325800 19.513100 -7.843670 -24.328900 0.000322 -0.000009 -0.967925 -2.115170 -24.572300 -22.291500 -0.000108 -0.000004 16.245800 5.424290 -3.744000 -2.192480 -6.469440 -0.000000 -178.267000 -17.674900 -3.234320 39.081100 -0.000007 -0.000012 -0.136865 0.278708 26.154400 40.985400 -0.000006 -0.000013 2.252770 5.311070 -69.920600 11.754300 -0.000000 0.000003 -0.000182 -0.001709 -16.642200 -2.192510 6.469440 -0.000001 172.784000 19.739800 176.403000 -39.081100 -0.002282 -0.040193 -0.160227 0.340983 25.622900 -40.985400 0.000008 0.000006 1.228550 19.233100 -68.263400 -11.754300 -0.000006 -0.000006 -0.000802 -0.012554 -17.083800
0.000000 0.000000 0.000000 0.000000 0.000000 -0.000000 3.218590 91.386700 1.079690 89.918800 -6.832300 3.449820 15.735700 0.000005 -0.000001 75.699500 85.712600 -73.033300 8.984550 -0.406207 -0.000000 0.602529 -2.283870 5.341130 16.377300 -0.000001 -0.000001 4.838730 -0.280493 -2.285340 6.456720 -0.000001 -0.000000 -1.536140 -0.988596 2.220330 12.994200 -0.242716 4.980390 -85.729800 -8.738830 -63.828600 5.348090 -0.000007 -0.000001 -46.716000 -64.168000 -80.697200 24.328600 0.000019 0.000005 2.615410 0.898270 -71.049800 22.291600 -0.000001 0.000005 16.133500 5.283010 0.544033 12.994500 -0.242716 -4.980390 87.394500 9.823440 -75.065800 -5.348130 -0.000001 -0.000004 -58.634000 20.081100 -7.759200 -24.328900 0.000322 -0.000009 -1.017330 -2.210000 -24.702900 -22.291500 -0.000108 -0.000004 16.185000 5.424650 -3.756360 -2.192480 -6.469440 -0.000000 -178.101000 -17.396200 -2.987110 39.081100 -0.000007 -0.000012 -0.136523 0.276731 26.259100 40.985400 -0.000006 -0.000013 2.176090 5.419670 -70.011100 11.754300 -0.000000 0.000003 -0.000184 -0.001728 -16.642900 -2.192510 6.469440 -0.000001 172.764000 19.833700 176.757000 -39.081100 -0.002282 -0.040193 -0.159560 0.337486 25.762100 -40.985400 0.000008 0.000006 1.411870 18.917200 -68.544500 -11.754300 -0.000006 -0.000006 -0.000630 -0.010002 -16.980100
0.000000 0.000000 0.000000 0.000000 0.000000 -0.000000 3.055610 91.349700 1.181310 89.869000 -6.453710 3.651310 15.735700 0.000005 -0.000001 76.541400 85.649900 -74.006200 8.984550 -0.406207 -0.000000 0.749225 -2.179300 5.081230 16.377300 -0.000001 -0.000001 4.648440 -0.593719 -1.923480 6.456720 -0.000001 -0.000000 -1.394190 -1.109080 2.142970 12.994200 -0.242716 4.980390 -86.408000 -7.597490 -64.602400 5.348090 -0.000007 -0.000001 -41.966800 -61.479800 -71.411000 24.328600 0.000019 0.000005 3.496380 0.564187 -80.832700 22.291600 -0.000001 0.000005 15.675300 5.270090 0.895848 12.994500 -0.242716 -4.980390 87.368100 9.874890 -74.995300 -5.348130 -0.000001 -0.000004 -58.831100 20.924300 -7.737620 -24.328900 0.000322 -0.000009 -1.079950 -2.361650 -24.560600 -22.291500 -0.000108 -0.000004 16.094700 5.424960 -3.767250 -2.192480 -6.469440 -0.000000 -177.871000 -17.069700 -2.831710 39.081100 -0.000007 -0.000012 -0.143167 0.287329 26.485700 40.985400 -0.000006 -0.000013 2.091290 5.520950 -70.152700 11.754300 -0.000000 0.000003 -0.000200 -0.001850 -16.647400 -2.192510 6.469440 -0.000001 172.801000 19.960700 177.068000 -39.081100 -0.002282 -0.040193 -0.161830 0.339773 25.921300 -40.985400 0.000008 0.000006 1.564780 18.667800 -68.811700 -11.754300 -0.000006 -0.000006 -0.000750 -0.011790 -17.052700
0.000000 0.000000 0.000000 0.000000 0.000000 -0.000000 2.900450 91.313900 1.271070 89.842400 -6.098480 3.845710 15.735700 0.000005 -0.000001 77.705000 85.603700 -75.338400 8.984550 -0.406207 -0.000000 0.871592 -2.013910 4.745230 16.377300 -0.000001 -0.000001 4.593520 -0.934546 -1.548100 6.456720 -0.000001 -0.000000 -1.357860 -1.343790 2.228200 12.994200 -0.242716 4.980390 -87.030600 -6.514700 -65.431100 5.348090 -0.000007 -0.000001 -37.412200 -57.465400 -61.517200 24.328600 0.000019 0.000005 4.485860 -0.059543 -90.748900 22.291600 -0.000001 0.000005 14.912800 5.265310 1.024730 12.994500 -0.242716 -4.980390 87.323300 9.952070 -74.863300 -5.348130 -0.000001 -0.000004 -59.085300 21.886900 -7.740640 -24.328900 0.000322 -0.000009 -1.044640 -2.334930 -24.090100 -22.291500 -0.000108 -0.000004 15.900300 5.424320 -3.745060 -2.192480 -6.469440 -0.000000 -177.662000 -16.841100 -2.670440 39.081100 -0.000007 -0.000012 -0.145952 0.290408 26.683200 40.985400 -0.000006 -0.000013 2.024930 5.683220 -70.283000 11.754300 -0.000000 0.000003 -0.000198 -0.001838 -16.646900 -2.192510 6.469440 -0.000001 172.810000 20.135000 177.365000 -39.081100 -0.002282 -0.040193 -0.165946 0.346042 26.064300 -40.985400 0.000008 0.000006 1.579360 18.464000 -69.007400 -11.754300 -0.000006 -0.000006 -0.000720 -0.011349 -17.034800
